<?xml version="1.0" standalone="no"?><!DOCTYPE svg PUBLIC "-//W3C//DTD SVG 1.1//EN" "http://www.w3.org/Graphics/SVG/1.1/DTD/svg11.dtd"><svg t="1751658742786" class="icon" viewBox="-20 -20 1064 1064" version="1.1" xmlns="http://www.w3.org/2000/svg" p-id="83668" width="128" height="128" xmlns:xlink="http://www.w3.org/1999/xlink"><path d="M860.834909 959.860364H164.305455c-45.335273 0-84.363636-16.058182-116.014546-47.709091-31.650909-31.650909-47.709091-70.702545-47.709091-116.037818v-442.181819c0-45.335273 16.058182-84.386909 47.709091-116.037818 31.650909-31.650909 70.702545-47.709091 116.014546-47.709091h87.063272l17.850182-43.147636c9.797818-22.853818 25.669818-42.053818 47.290182-57.530182 23.947636-17.058909 47.592727-25.367273 72.331636-25.367273h252.043637c23.738182 0 49.408 9.006545 72.308363 25.344 21.713455 15.499636 37.538909 34.699636 47.150546 57.111273l16.546909 43.566546h83.944727c45.335273 0 84.363636 16.034909 116.037818 47.70909 31.650909 31.650909 47.709091 70.702545 47.709091 116.037819v442.181818c0 45.358545-16.058182 84.386909-47.709091 116.061091-31.674182 31.650909-70.702545 47.709091-116.037818 47.709091zM164.305455 265.634909c-25.274182 0-45.195636 8.145455-62.673455 25.623273-17.477818 17.454545-25.623273 37.376-25.623273 62.673454v442.181819c0 25.297455 8.145455 45.218909 25.623273 62.696727 17.454545 17.477818 37.376 25.6 62.673455 25.6h696.529454c25.274182 0 45.195636-8.122182 62.696727-25.6 17.454545-17.454545 25.6-37.376 25.6-62.696727v-442.181819c0-25.274182-8.145455-45.218909-25.623272-62.673454-17.477818-17.477818-37.399273-25.623273-62.673455-25.623273h-136.005818l-34.443636-90.786909c-3.537455-8.192-10.612364-16.500364-21.015273-23.924364-11.659636-8.331636-22.644364-11.310545-28.485818-11.310545h-252.043637c-8.843636 0-17.384727 3.397818-28.485818 11.333818-10.379636 7.400727-17.454545 15.732364-21.597091 25.413818l-36.933818 89.297455H164.305455z m348.25309 526.056727c-123.880727 0-224.674909-100.794182-224.674909-224.674909s100.794182-224.674909 224.674909-224.674909 224.674909 100.794182 224.67491 224.674909-100.770909 224.674909-224.67491 224.674909z m0-373.922909c-82.292364 0-149.224727 66.932364-149.224727 149.224728s66.932364 149.224727 149.224727 149.224727 149.224727-66.932364 149.224728-149.224727-66.932364-149.224727-149.224728-149.224728z" fill="#2c2c2c" stroke="#2c2c2c" stroke-width="5" p-id="83669"></path></svg>