<?xml version="1.0" standalone="no"?><!DOCTYPE svg PUBLIC "-//W3C//DTD SVG 1.1//EN" "http://www.w3.org/Graphics/SVG/1.1/DTD/svg11.dtd"><svg t="1751659386673" class="icon" viewBox="10 10 1004 1004" version="1.1" xmlns="http://www.w3.org/2000/svg" p-id="129490" width="128" height="128" xmlns:xlink="http://www.w3.org/1999/xlink"><path d="M514.03527168 997.02320355c-129.21318286 0-250.56567069-50.25333134-341.83867619-141.52633571-91.27300551-91.27300551-141.52633685-212.62549447-141.52633686-341.83867733s50.25333134-250.5705051 141.52633686-341.84351062c188.35209557-188.35692999 495.33009237-188.35692999 683.68218794 0 188.35692999 188.35692999 188.35692999 495.33009237 0 683.68218795-91.27300551 91.27300551-212.62549447 141.52633685-341.83867733 141.52633571z m0-894.26274076c-105.28785977 0-210.57088398 40.33802695-290.56529181 120.3276015-77.59655822 77.60139264-120.32760035 180.49623609-120.32760149 290.57012622s42.73104327 212.9639003 120.32760149 290.56529294c77.60139264 77.59655822 180.83464192 120.66600733 290.56529181 120.32760036 110.07872569 0 212.96873472-42.73104327 290.56529294-120.32760036 160.32722261-160.32722261 160.32722261-420.80819655 0-581.13058475-79.98957341-79.99440782-185.27743317-120.32760035-290.56529294-120.32760149z" fill="#2c2c2c" stroke="#2c2c2c" stroke-width="6" p-id="129491"></path><path d="M627.54156885 768.80684942c-18.85406322 18.85406322-39.64187762 18.85406322-58.49594083 0s-4.35093731-49.31062784 14.5031259-68.16469105c100.0715685-100.0715685 100.0715685-262.50657792 0-362.57814642-18.85406322-18.85406322-33.35718912-49.31062784-14.5031259-68.1646922s39.64187762-19.33750158 58.49594083-0.48343722c137.77969607 137.77969607 137.77969607 361.61127197 0 499.39096689zM485.41093547 634.89465458c-14.98656313 14.98656313-34.80750194 14.98656313-49.79406507 0-14.98656313-14.98656313-5.31781291-39.64187762 9.66875022-54.62844075C463.65624661 561.89558784 473.32499797 537.24027335 473.32499797 511.61808441c0-25.62218894-10.15218859-49.79406507-28.52281458-68.16469106-14.98656313-14.98656313-24.65531449-39.64187762-9.66875022-54.62844188s34.80750194-14.98656313 49.79406507 0C518.28468736 421.6987045 536.17187613 465.69151943 536.17187613 511.61808441c0 45.92656498-17.88718877 89.91937991-50.76094066 123.27657017z" fill="#2c2c2c" stroke="#2c2c2c" stroke-width="4" p-id="129492"></path><path d="M318.62498873 512.58495886m-48.34375339 0a48.34375339 48.34375339 0 1 0 96.68750564 0 48.34375339 48.34375339 0 1 0-96.68750564 0Z" fill="#2c2c2c" stroke="#2c2c2c" stroke-width="3" p-id="129493"></path></svg>