<?xml version="1.0" standalone="no"?><!DOCTYPE svg PUBLIC "-//W3C//DTD SVG 1.1//EN" "http://www.w3.org/Graphics/SVG/1.1/DTD/svg11.dtd"><svg t="1751659177564" class="icon" viewBox="30 30 964 964" version="1.1" xmlns="http://www.w3.org/2000/svg" p-id="108991" width="128" height="128" xmlns:xlink="http://www.w3.org/1999/xlink"><path d="M512 960c-246.784 0-448-201.216-448-448S265.216 64 512 64s448 201.216 448 448-201.216 448-448 448z m0-819.2C307.2 140.8 140.8 307.2 140.8 512S307.2 883.2 512 883.2s371.2-166.4 371.2-371.2S716.8 140.8 512 140.8z" fill="#2c2c2c" stroke="#2c2c2c" stroke-width="6" p-id="108992"></path><path d="M512 744.96c-20.992 0-38.4-17.408-38.4-38.4V322.56c0-20.992 17.408-38.4 38.4-38.4s38.4 17.408 38.4 38.4v384c0 20.992-17.408 38.4-38.4 38.4zM640 642.56c-20.992 0-38.4-17.408-38.4-38.4V424.96c0-20.992 17.408-38.4 38.4-38.4s38.4 17.408 38.4 38.4v179.2c0 20.992-17.408 38.4-38.4 38.4zM384 642.56c-20.992 0-38.4-17.408-38.4-38.4V424.96c0-20.992 17.408-38.4 38.4-38.4s38.4 17.408 38.4 38.4v179.2c0 20.992-17.408 38.4-38.4 38.4zM768 581.12c-20.992 0-38.4-17.408-38.4-38.4V491.52c0-20.992 17.408-38.4 38.4-38.4s38.4 17.408 38.4 38.4v51.2c0 20.992-17.408 38.4-38.4 38.4zM256 581.12c-20.992 0-38.4-17.408-38.4-38.4V491.52c0-20.992 17.408-38.4 38.4-38.4s38.4 17.408 38.4 38.4v51.2c0 20.992-17.408 38.4-38.4 38.4z" fill="#2c2c2c" stroke="#2c2c2c" stroke-width="4" p-id="108993"></path></svg>