<?xml version="1.0" standalone="no"?><!DOCTYPE svg PUBLIC "-//W3C//DTD SVG 1.1//EN" "http://www.w3.org/Graphics/SVG/1.1/DTD/svg11.dtd"><svg t="1751657664234" class="icon" viewBox="10 10 1004 1004" version="1.1" xmlns="http://www.w3.org/2000/svg" p-id="1531" xmlns:xlink="http://www.w3.org/1999/xlink" width="128" height="128"><path id="background" d="M512 512m-350 350a495 495 0 1 0 700-700 495 495 0 1 0-700 700Z" fill="currentColor" p-id="1532"></path><path id="arrow" d="M250 400l450-110a28 28 0 0 1 32 39l-200 420a28 28 0 0 1-52-3l-52-160a28 28 0 0 1 6-27L520 460a7 7 0 0 0-9-11l-120 70a28 28 0 0 1-28 0L240 450a28 28 0 0 1 10-50z" fill="#FFFFFF" p-id="1533"></path></svg>
