<?xml version="1.0" standalone="no"?><!DOCTYPE svg PUBLIC "-//W3C//DTD SVG 1.1//EN" "http://www.w3.org/Graphics/SVG/1.1/DTD/svg11.dtd"><svg t="1751658405708" class="icon" viewBox="-20 -20 1064 1064" version="1.1" xmlns="http://www.w3.org/2000/svg" p-id="62610" width="128" height="128" xmlns:xlink="http://www.w3.org/1999/xlink"><path d="M512 2.27555555A509.72444445 509.72444445 0 1 0 1021.72444445 512 510.29333333 510.29333333 0 0 0 512 2.27555555z m0 946.63111112a436.90666667 436.90666667 0 1 1 436.90666667-436.90666667 437.47555555 437.47555555 0 0 1-436.90666667 436.90666667z" fill="#2c2c2c" stroke="#2c2c2c" stroke-width="6" p-id="62611"></path><path d="M293.54666667 384.56888889m-54.61333334 0a54.61333333 54.61333333 0 1 0 109.22666667 0 54.61333333 54.61333333 0 1 0-109.22666667 0Z" fill="#2c2c2c" stroke="#2c2c2c" stroke-width="3" p-id="62612"></path><path d="M439.18222222 439.18222222A54.61333333 54.61333333 0 1 0 384.56888889 384.56888889a54.61333333 54.61333333 0 0 0 54.61333333 54.61333333zM584.81777778 329.95555555a54.61333333 54.61333333 0 1 0 54.61333333 54.61333334 54.61333333 54.61333333 0 0 0-54.61333333-54.61333334zM730.45333333 329.95555555a54.61333333 54.61333333 0 1 0 54.61333334 54.61333334 54.61333333 54.61333333 0 0 0-54.61333334-54.61333334z" fill="#2c2c2c" stroke="#2c2c2c" stroke-width="3" p-id="62613"></path><path d="M293.54666667 530.20444445m-54.61333334 0a54.61333333 54.61333333 0 1 0 109.22666667 0 54.61333333 54.61333333 0 1 0-109.22666667 0Z" fill="#2c2c2c" stroke="#2c2c2c" stroke-width="3" p-id="62614"></path><path d="M439.18222222 584.81777778a54.61333333 54.61333333 0 1 0-54.61333333-54.61333333 54.61333333 54.61333333 0 0 0 54.61333333 54.61333333zM584.81777778 657.63555555H439.18222222a54.61333333 54.61333333 0 0 0 0 109.22666667h145.63555556a54.61333333 54.61333333 0 1 0 0-109.22666667zM584.81777778 475.59111111a54.61333333 54.61333333 0 1 0 54.61333333 54.61333334 54.61333333 54.61333333 0 0 0-54.61333333-54.61333334zM730.45333333 475.59111111a54.61333333 54.61333333 0 1 0 54.61333334 54.61333334 54.61333333 54.61333333 0 0 0-54.61333334-54.61333334z" fill="#2c2c2c" stroke="#2c2c2c" stroke-width="3" p-id="62615"></path></svg>